# xmcd CD database file
#
# Track frame offsets:
#	150
#	15075
#	37770
#	54540
#	74315
#	90755
#	111512
#	127087
#	140700
#	152487
#	167877
#	177440
#	193847
#	210267
#	225975
#	242059
#
# Disc length: 3518 seconds
#
# Revision: 0
# Processed by: cddbd v1.5.2PL0 Copyright (c) Steve Scherf et al.
# Submitted via: CDex 1.51
#
DISCID=cc0dbc10
DTITLE=New Orleans Syncopators - High Society
DYEAR=1999
DGENRE=Jazz
TTITLE0=High Society
TTITLE1=Do You Know What it Means to Miss New Orleans
TTITLE2=Baby Won't You Please Come Home
TTITLE3=Chimes Blues
TTITLE4=eh La Bas
TTITLE5=Mood Indigo
TTITLE6=Duff Cambell's Revenge
TTITLE7=Petite Fleur
TTITLE8=Flat Foot Floogie
TTITLE9=Indian Summer
TTITLE10=Freeze An' Melt
TTITLE11=Mein Herz Hat Heut' Premiere
TTITLE12=Muskrat Ramble
TTITLE13=See See Rider
TTITLE14=I'm Gonna Sit Right Down and Write Myself a Letter
TTITLE15=Bill Bailey'  Won't You Please Come Home 
EXTD=YEAR: 1999
EXTT0=
EXTT1=
EXTT2=
EXTT3=
EXTT4=
EXTT5=
EXTT6=
EXTT7=
EXTT8=
EXTT9=
EXTT10=
EXTT11=
EXTT12=
EXTT13=
EXTT14=
EXTT15=
PLAYORDER=
